<svg xmlns="http://www.w3.org/2000/svg" width="714.442" height="426.235" viewBox="0 0 714.442 426.235">
  <g id="Group_6" data-name="Group 6" transform="translate(-831 498)">
    <g id="Group_5" data-name="Group 5" transform="translate(0 -120)">
      <g id="Group_4" data-name="Group 4" transform="translate(831 -378)">
        <g id="Group_2" data-name="Group 2">
          <path id="Path_10" data-name="Path 10" d="M600.438,199.206a1.911,1.911,0,0,0-.347-1.793c-3.318-3.9-5.68-8.447-8.148-12.859-4.587-8.2-8.9-16.568-12.988-25.028-4.639-9.6-8.915-19.368-13.336-29.069-2.37-5.2-4.529-10.507-7.119-15.594A160.591,160.591,0,0,0,548.449,97c-.982-1.441-1.362-1.6-3.208-.911-5.8,2.171-11.622,4.309-17.35,6.666-9.143,3.761-18.036,8.064-26.857,12.536-8.389,4.253-16.654,8.709-24.7,13.577-1.089.659-2.276,1.155-3.417,1.728a11.769,11.769,0,0,0-3.56,2.787c1.9.763,3.483.476,5,.478q27.345.031,54.69.025c1.75,0,3.5.171,5.249.239,1.1.042,2.47-.365,3.224.152a10.03,10.03,0,0,1,2.62,3.311c1.762,3.023,3.433,6.1,5.078,9.189,4.336,8.138,9.008,16.084,13.559,24.1,2.9,5.116,5.753,10.271,8.66,15.39,3.375,5.942,6.755,11.882,10.091,17.847a101.843,101.843,0,0,1,9.676,22.677c3.494,12.662,5.979,25.563,9.569,38.192,1.945,6.843,3.848,13.7,5.776,20.548a223.945,223.945,0,0,0,8.331,23.269c4.432,10.941,9.852,21.441,17.389,30.557,4.736,5.728,10.021,11.115,17.1,15.395-4.357.589-7.988,2.365-11.865.5-6.1-.291-11.332-2.924-16.317-6.137a57.428,57.428,0,0,1-12.605-11.543,126.518,126.518,0,0,1-16.1-25.255,119.6,119.6,0,0,1-7.522-18c-1.514-4.843-3.581-9.515-5.055-14.368-2.71-8.917-5.444-17.833-7-27.059-.71-4.2-1.731-8.355-2.664-12.518a13.876,13.876,0,0,0-2.6-5.453,261.678,261.678,0,0,1-17.267-26.216c-2.072-3.576-3.938-7.271-5.869-10.927a13.462,13.462,0,0,1-.524-2.263c1.286,1.574,2.1,2.39,2.706,3.341a152.48,152.48,0,0,0,12.063,15.9c4.589,5.477,9.239,10.9,13.894,16.325a8.718,8.718,0,0,1,2.124,4.664c.824,5.787,1.809,11.544,3.062,17.271a294.2,294.2,0,0,0,9.293,32.874c4.567,13.264,10.249,26.046,18.28,37.651A60.021,60.021,0,0,0,608,332.222a45.11,45.11,0,0,0,8.863,7.155c.37.216.657.174.767-.215.079-.282.173-.683.039-.882-6.436-9.576-10.317-20.316-14.43-30.984-4-10.377-7.229-20.985-10.255-31.658Q588.266,258.985,584,242.2c-1.643-6.446-3.213-12.908-5.366-19.2a62.373,62.373,0,0,0-6.035-13.424c-1.432-2.262-2.467-4.776-3.671-7.181-3.42-6.83-7.337-13.38-11.205-19.961-2.9-4.935-5.486-10.055-8.372-15-3.442-5.9-7.049-11.7-10.6-17.529-.99-1.627-2.064-3.2-3.032-4.84a2.342,2.342,0,0,0-2.852-1.2c-2.819.886-5.692.686-8.552.635-2.726-.048-5.267,1.11-8.04.914a19.379,19.379,0,0,0-8.045.669c-1.142.406-2.534.091-3.812.138-2.849.107-5.72-.327-8.524.743-.983.375-2.217.083-3.335.12a25.179,25.179,0,0,0-6.146.615c-1.938.538-4.125.169-6.2.236-3.017.1-6.085-.416-9.018.735a1.3,1.3,0,0,1-.476.027c-9.738-.156-19.441,1.355-29.178.694a44.508,44.508,0,0,1-9.84-1.691c-4.68-1.419-9.5-2.526-14-4.929,1.47-1.943,3.734-2.525,5.709-3.36a96.95,96.95,0,0,0,12.365-6.2c3.951-2.383,8.149-4.355,12.208-6.565,1.535-.835,2.993-1.814,4.455-2.776a.849.849,0,0,0,.177-.8.958.958,0,0,0-.706-.479c-2.236-.063-4.476-.151-6.709-.084-4.346.131-8.52-.943-12.736-1.712a10.677,10.677,0,0,1-2.215-.992,14.073,14.073,0,0,1,2.395-.973c5.741-1.111,10.7-4.07,15.739-6.755a42.566,42.566,0,0,0,11.526-9.168,1.616,1.616,0,0,0,.471-1.236c-.285-.806-1.051-.4-1.57-.277a35.742,35.742,0,0,1-17.838-.769,8.8,8.8,0,0,1-1.237-.658c.878-2.937,1.667-5.8,2.6-8.625,1.071-3.256.729-6.6.862-9.926.347-8.651-2.351-16.573-5.845-24.272a91.128,91.128,0,0,0-4.994-9.231c-2.579-4.29-6.344-7.552-10.011-10.86-6.7-6.039-14.549-10.1-22.906-13.343a156.263,156.263,0,0,0-17.762-5.3,48.327,48.327,0,0,0-7.512-1.111c-3.641-.341-7.249-1.018-10.946-.829-2.186.111-2.518-.32-2.539-2.468-.043-4.451-.013-8.9-.013-13.264a10.407,10.407,0,0,1,5.97-.557c6.753.84,13.574,1.267,20.172,3.143,7.5,2.132,15.006,4.279,21.859,8.092a96.965,96.965,0,0,1,16.662,11.056,94.6,94.6,0,0,1,7.4,6.749c7.577,8.108,13.57,17.245,17.057,27.824a55.423,55.423,0,0,1,3.2,18.165c-.011.769,0,1.538,0,2.608,3.8-.562,6.861-2.291,10.022-3.622,8.977-3.78,17.64-8.239,26.283-12.71,5.648-2.921,11.108-6.207,16.621-9.384,6.616-3.813,13.2-7.677,19.79-11.536a1.433,1.433,0,0,1,2.053.467,10.932,10.932,0,0,1,.916,1.669,178.552,178.552,0,0,0,15.777,23.772c.966,1.274,1.558,1.338,3.224.332a43.989,43.989,0,0,1,9.935-4.644c2.091-.634,2.751-.435,4.137,1.288,4.272,5.311,8.48,10.676,12.814,15.937,2.323,2.82,5.123,5.28,7.224,8.244,2.968,4.186,7.32,7.112,10.02,11.492a4.632,4.632,0,0,0,.66.693c5.728,5.993,11.626,11.835,17.131,18.026,5.095,5.728,10.471,11.165,15.886,16.573a9.3,9.3,0,0,1,2.262,3.612c4.7,13.578,11.063,26.411,17.685,39.114a321.331,321.331,0,0,0,22.412,37.11c4.486,6.345,9,12.695,13.925,18.7a106.607,106.607,0,0,0,12.355,13.3c4.811,4.161,9.639,8.313,15.5,11.027a22.024,22.024,0,0,0,4.707,1.778c.436,1.2-.436,1.246-.914,1.449a32.119,32.119,0,0,1-10.542,2.562c-10.362.69-19.359-3.065-27.928-8.207a79.44,79.44,0,0,1-12.686-10.067c-9.827-9.053-17.324-19.925-24.259-31.145a173.531,173.531,0,0,1-12.96-25.529c-2.1-5.131-4.5-10.139-6.739-15.217a9.207,9.207,0,0,1-.138-2.128c1.993,3.416,3.6,6.12,5.156,8.848a252.652,252.652,0,0,0,18.012,27.466c3.919,5.159,7.873,10.338,12.223,15.221,5.426,6.093,11.222,11.788,17.039,17.456a39.783,39.783,0,0,0,12.986,8.727,2.37,2.37,0,0,0,.389.235c.391.146.87.533,1.167,0,.475-.858-.439-.845-.838-1.146a27.619,27.619,0,0,0-1.79-2.2c-8.764-8.815-16.239-18.67-23.56-28.677-5.448-7.445-10.036-15.428-15.1-23.113-1.572-2.385-2.913-4.93-4.245-7.462q-5.56-10.573-11.02-21.2a156.129,156.129,0,0,1-9.661-22.809,15.887,15.887,0,0,0-4.462-7.2c-.119-.106-.23-.222-.34-.338-6.63-6.893-13.435-13.63-19.816-20.747-3.192-3.562-6.811-6.769-9.69-10.533-3.013-3.941-7.138-6.849-9.738-11.108a9.757,9.757,0,0,0-1.313-1.391c-3.577-3.844-7.175-7.669-10.713-11.548-1.283-1.406-2.385-2.975-3.637-4.41a3.333,3.333,0,0,0-3.844-1.008c-5.781,1.676-11.708,2.89-17.41,4.79-8.438,2.811-16.734,6.05-25.083,9.124-7.316,2.693-14.651,5.338-21.927,8.136-9.057,3.483-18.182,6.76-27.433,9.69-.415.131-.972.22-1.024,1.154,9.985-1.018,19.644-3.676,29.414-5.636,10.086-2.023,20.066-4.6,30.05-7.1,9.825-2.464,19.6-5.138,29.632-7.782,3.049,5.189,6.108,10.193,8.965,15.309,3.723,6.668,7.418,13.357,10.888,20.158,6.31,12.362,12.322,24.877,18.692,37.208,5.037,9.751,10.483,19.289,15.632,28.983,2.912,5.483,6.3,10.665,9.635,15.882a122.642,122.642,0,0,0,20.2,24.065,28.818,28.818,0,0,0,5.079,3.536c.782.462,1.6.867,2.227,1.206.059.721-.137.887-.56.887-1.756,0-3.634.419-5.241-.065-2.88-.868-5.866-1.4-8.635-2.706a87.306,87.306,0,0,1-16.637-10.251,92.5,92.5,0,0,1-12.853-11.982c-.732-.842-1.564-1.6-2.365-2.38a132.606,132.606,0,0,1-15.077-17.795c-5-6.958-9.974-13.953-14.28-21.375-3.35-5.775-6.829-11.506-9.691-17.522-2.666-5.606-5.375-11.2-7.988-16.828a33.911,33.911,0,0,1-1.862-5.587c1.329,2.515,2.674,5.021,3.984,7.546a234.448,234.448,0,0,0,15.542,25.082c4.513,6.532,9.514,12.675,14.362,18.939,2.33,3.01,5.228,5.586,7.506,8.631,3.373,4.509,7.566,8.178,11.53,12.084-.205-.245-.181-.3.063-.17ZM463.657,95.221c5.662-1.381,10.713-3.717,15.789-5.952,4.666-2.054,9.177-4.472,13.887-6.415,7.374-3.041,14.28-7.026,21.521-10.33,3.471-1.585,6.673-3.719,10.344-4.926a14.232,14.232,0,0,0,5.868-4.216c-1.484-.921-3.039-1.748-4.433-2.789s-2.635-2.3-3.945-3.463a11.68,11.68,0,0,0-1.095-.921.916.916,0,0,0-1.275.04,18.6,18.6,0,0,1-2.067,1.934c-6.361,5.131-13.571,8.909-20.722,12.694C485.591,77.2,473.45,83.14,460.4,87.237A21.373,21.373,0,0,0,463.657,95.221Z" fill="#ff0024"/>
          <path id="Path_11" data-name="Path 11" d="M103.692,333.657c2.995-1.935,4.715-5.062,6.834-7.738,4.44-5.606,7.7-11.97,10.747-18.412a272.44,272.44,0,0,0,12.775-33.339,329.293,329.293,0,0,0,8.409-32.571,65.413,65.413,0,0,0,.884-8.507,4.134,4.134,0,0,1,1.008-2.6,107.855,107.855,0,0,0,9.769-13.454c.853-1.322,2.071-2.4,3-3.684,4.013-5.517,8.1-10.983,11.935-16.625,4.455-6.559,8.664-13.286,13-19.929.541-.829,1.189-1.588,2.367-3.147a133.646,133.646,0,0,1-6.975,14.6c-2.154,4.075-4.648,7.971-6.768,12.062-3.222,6.22-7.157,12.01-10.623,18.076-2.832,4.957-6.208,9.539-9.293,14.319a12.038,12.038,0,0,0-1.731,4.327c-1.789,8.984-3.767,17.933-5.813,26.863-2.015,8.794-4.521,17.458-7.244,26.061a189.165,189.165,0,0,1-14.046,33.819,74.385,74.385,0,0,1-7.177,10.656,77.4,77.4,0,0,1-5.631,6.48,50.027,50.027,0,0,1-14.86,10.262A41.054,41.054,0,0,1,81.79,354.2c-3.614.417-7.33-.03-11-.143-.4-.012-1,.108-1.2-.509-.179-.57.208-.808.624-1.047,6.482-3.726,11.461-9.067,15.791-15.017a151.114,151.114,0,0,0,16.068-28.616c3.123-7.141,5.925-14.4,8.475-21.727,2.808-8.074,5.089-16.337,7.4-24.573,3.593-12.777,6.215-25.783,8.58-38.83a31.412,31.412,0,0,1,4.484-11.358c5.312-8.477,10.306-17.153,15.389-25.772,5.328-9.033,10.777-18,15.854-27.171,3.458-6.247,7.486-12.132,10.992-18.337,1.017-1.8,2.032-3.6,3.029-5.411a3.666,3.666,0,0,1,3.018-1.886c5.849-.977,11.764-.406,17.6-.994,4.142-.417,8.331,0,12.39-.588,5.9-.86,11.835-.078,17.656-.794,5.255-.646,10.478-.549,15.717-.739.546-.02.9-.3.867-.819a1.021,1.021,0,0,0-.527-.688,9.36,9.36,0,0,0-1.37-.413q-10.482-3.221-20.96-6.451c-5.313-1.647-10.6-3.381-15.926-4.984-9.735-2.928-19.344-6.272-29.232-8.7-3.694-.908-7.143-2.687-10.92-3.389-.625-.116-1.222-.383-1.847-.493a2.192,2.192,0,0,0-2.418,1.113q-7.476,11.891-16,23.053a23.754,23.754,0,0,0-3.647,7.194q-4.611,14.27-10.27,28.172c-4.079,10.026-8.3,19.976-13.93,29.267a8.594,8.594,0,0,0-.838,2.225c-.059.22.225.555.4.8.049.067.323.05.433-.022,1.049-.683,2.388-1.173,3.063-2.128a41.327,41.327,0,0,1,5.243-5.562c4.8-4.676,8.789-10.027,13.024-15.181,5.137-6.253,9.654-12.947,14.469-19.957,0,.845.144,1.341-.023,1.687-1.247,2.584-2.443,5.2-3.863,7.693a259.945,259.945,0,0,1-18.9,28.56c-6.313,8.308-13.683,15.6-21.286,22.606a87.889,87.889,0,0,1-29.532,18.1,35.914,35.914,0,0,1-9.693,2.011c4.075-2.926,7.838-5.457,11.409-8.234a79.469,79.469,0,0,0,12.211-12.1,142.959,142.959,0,0,0,8.851-11.8c3.088-4.612,6.006-9.361,8.659-14.233q4.8-8.823,9.007-17.97c2.587-5.622,5.02-11.339,7.1-17.164,2.771-7.755,5.759-15.454,7.607-23.517a16.749,16.749,0,0,1,3.356-6.212c4.95-6.6,9.736-13.321,14.943-19.725,1.493-1.836,3.366-3.419,4.58-5.412a3.039,3.039,0,0,1,4.019-1.463c6.494,2.2,13.323,2.853,19.96,4.389,9.088,2.1,18.348,3.455,27.524,5.181,5.277.993,10.517,2.193,15.806,3.11,5.161.9,10.367,1.525,15.547,2.314,5.954.906,11.876,2.123,17.86,2.684,3.157.3,6.293.829,9.461.981a6.436,6.436,0,0,1,3.2.814A99.718,99.718,0,0,1,284.9,127.225a7.838,7.838,0,0,1,.913,1.409c-1.328.608-2.584.318-3.76.442-1.265.133-2.345.909-3.7.855-7.241-.289-14.124,1.849-21.1,3.3a29.862,29.862,0,0,0-5.327,2.07c-.546.231-1.371.438-1.278,1.19s.866.694,1.492.778c5.027.675,10.1.967,15.05,2.269a59.674,59.674,0,0,1,17.882,7.665,17.123,17.123,0,0,1,4.133,4.156c-1.281.708-2.1-.318-2.929-.7a26.5,26.5,0,0,0-12.961-2.7,4.373,4.373,0,0,0-1.388.3,1.03,1.03,0,0,0-.521.68c-.041.254.092.716.277.8a37.924,37.924,0,0,1,4.319,1.991c4.416,2.65,6.969,6.9,9.629,11.02,4.506,6.984,7.4,14.767,10.809,22.294a76.063,76.063,0,0,0,9.538,15.363c1.67,2.139,3.766,2.445,6.372,1.319,6.874-2.97,14.19-4.477,21.353-6.494,3.521.164,6.934-.818,10.395-1.195a75.6,75.6,0,0,1,8.544-.547c1.911.007,2.277.383,2.313,2.22.046,2.395.021,4.792-.044,7.186a1.8,1.8,0,0,1-1.754,1.918c-2.968.122-5.529,1.382-8.093,2.678a25.467,25.467,0,0,1-5.442,1.742c-6.155,1.537-12.417,2.745-18.211,5.485a18.311,18.311,0,0,0-2.1,1.074c-.31.2-.8.553-.458,1.034.142.2.569.236.876.282a4.521,4.521,0,0,0,2.272-.583,5.508,5.508,0,0,1,1.89-.163c.235,0,.469.2.7.313-.278.9-1,1.147-1.8,1.392a29.971,29.971,0,0,0-9.841,5.714c-2.646,2.132-4.2,5.151-5.955,7.986-.119.192.023.642.186.871.082.115.573.107.73-.024,5.193-4.349,11.337-6.974,17.4-9.805,3.73-1.742,7.227-3.98,10.833-5.987.388-.216.81-.372,1.819-.831-1.209,2.636-.89,4.994-1.428,7.285a11.98,11.98,0,0,0,1.271,9.56c2.063-4.576,4.172-8.829,8.023-11.746a32.944,32.944,0,0,1,8.315-4.6c1.236.9.724,2.08.806,3.1a1.816,1.816,0,0,1-1.191,1.874,25.487,25.487,0,0,0-6.792,5.118,22.32,22.32,0,0,0-6.14,10.5c-.55,2.057.208,3.894.6,6.3-3.695-2.124-5.327-5.222-7.361-8.034-2.093-2.893-2.659-6.424-4.392-9.519-6.274,1.364-11.116,4.815-15.2,9.449a8.2,8.2,0,0,0-1.714,2.835c-1.4,4.49-2,8.957.557,13.345a46.8,46.8,0,0,0,3.048,5.4.9.9,0,0,1-.036,1.327c-.187,0-.5.1-.7-.014a65.7,65.7,0,0,1-16.02-13.483c-4.024-4.557-3.489-9.148,0-13.422,2.769-3.388,6.473-5.628,10.176-7.836a24.273,24.273,0,0,1,2.548-1.32c.777-.346,1.554-.856,1.494-1.672-.084-1.122-1.068-1.439-2.107-1.536a3.3,3.3,0,0,1-1.328-.441.911.911,0,0,1,.042-.813c1.343-.817,2.711-1.6,4.1-2.335,4.507-2.388,9.029-4.747,13.535-7.136a8.336,8.336,0,0,0,1.126-.875c-2.867-.812-3.181-1.036-4.792-.422a11.435,11.435,0,0,1-4.706.57c-2.57-.107-4.945.956-7.535,1.009a10.915,10.915,0,0,1-7.024-2.243,118.182,118.182,0,0,1-19.7-18.662,119.682,119.682,0,0,1-10.765-15.091c-.657-1.073-1.054-2.3-1.628-3.431-.108-.211-.479-.341-.752-.4-.366-.081-.509.169-.579.57-.848,4.806-3.14,8.971-5.826,12.952-5.415,8.026-11.077,15.863-17.187,23.391-5.4,6.648-10.442,13.578-15.748,20.3-3.046,3.861-6.312,7.55-9.456,11.334-.91,1.1-1.524,2.59-2.65,3.325-3.547,2.317-2.762,5.106-1.448,8.223,1.911,4.531,3.709,9.113,5.458,13.71,2.37,6.229,4.662,12.489,6.96,18.745,1.586,4.318,3.171,8.637,4.675,12.984,1.708,4.939,3.318,9.912,4.983,14.866a153.134,153.134,0,0,1,5.176,17.262,7.488,7.488,0,0,0,3.821,5.185c6.361,3.637,12.031,8.282,17.9,12.635q6.312,4.683,12.516,9.511c2.135,1.655,4.181,3.425,6.253,5.159,4.865,4.073,9.935,7.932,14.517,12.3,4,3.81,8.335,7.28,11.9,11.558a54.353,54.353,0,0,0,6.093,6.1c2.733,2.38,4.255,5.826,7.442,8.154a14.954,14.954,0,0,0-1.708-6.058,117.065,117.065,0,0,0-7.743-13.145,148.735,148.735,0,0,0-11.678-16.2c-5.485-6.4-10.614-13.135-16.951-18.787-2.62-2.337-4.923-5.026-7.5-7.416-6.757-6.269-13.6-12.449-21.494-17.3a4.517,4.517,0,0,1-2.2-2.945c-1.946-8.307-3.843-16.626-5.8-24.931-.47-2-1.171-3.939-1.661-5.932-1.359-5.524-2.619-11.072-4-16.59-.957-3.824-2.08-7.605-3.066-11.422a28.885,28.885,0,0,1-.459-3.3c1.928,1.991,2.5,4.536,3.4,6.834,3.417,8.708,6.543,17.53,9.876,26.272,2.769,7.264,5.27,14.616,7.353,22.1a12.9,12.9,0,0,0,5.051,7.183c4.433,3.341,8.413,7.277,12.8,10.683,5.579,4.332,10.291,9.54,15.208,14.529,5.24,5.316,10.036,11.04,14.77,16.829,3.322,4.061,5.919,8.666,9.627,12.409,3.547,6.369,7.76,12.329,10.915,18.956a93.108,93.108,0,0,1,7.039,19.188,41.741,41.741,0,0,1,1.432,12.215c-.131,1.881-.593,3.738-.88,5.609-.065.422-.228.627-.608.509a1.955,1.955,0,0,1-.813-.4,3.273,3.273,0,0,1-.433-.846,72.563,72.563,0,0,0-11.114-15.42c-2.749-3.079-5.312-6.321-7.985-9.468-.722-.85-1.525-1.634-2.315-2.424-7.8-7.8-15.349-15.872-23.505-23.279-4.58-4.16-8.773-8.762-13.773-12.494-2.659-1.985-4.964-4.451-7.509-6.624q-10.34-8.824-21.248-16.913a21.854,21.854,0,0,0-3.065-2.246c-6.151-3.046-5.174-3.548-8.169-11.023-2.892-7.217-5.633-14.5-8.346-21.782-3.375-9.064-6.63-18.173-9.983-27.246-1.7-4.608-3.564-9.159-5.251-13.774-2.561-7.006-5.488-13.877-7.7-21.015a2.414,2.414,0,0,1,.4-2.554c4.7-6.193,9.226-12.515,14.021-18.63,4.208-5.367,8.7-10.516,13.053-15.765,4.159-5.011,8.438-9.93,12.42-15.079,2.421-3.131,5.068-6.069,7.362-9.325,3.957-5.618,7.484-11.4,9.646-17.95.978-2.962.642-6.032.33-9.006a4.468,4.468,0,0,0-3.344-3.692,13.727,13.727,0,0,0-3.772-.525c-7-.17-13.966-.689-20.926-1.406-1.582-.163-3.181-.171-4.773-.225-2.06-.07-4.112.152-6.139-.664a10.547,10.547,0,0,0-3.321-.2c-2.532-.111-5.123.4-7.557-.761a1.893,1.893,0,0,0-.946-.082c-5.6.528-11.1-.741-16.662-.911-4.273-.13-8.529-.8-12.793-1.229-.792-.079-1.591-.1-2.377-.214-1.858-.276-3.027.711-3.849,2.164-2.1,3.721-4.141,7.481-6.211,11.222-5.159,9.324-10.1,18.768-15.569,27.922-3.019,5.05-5.671,10.318-8.571,15.441-3.357,5.928-6.649,11.9-10.283,17.658a22.845,22.845,0,0,0-3.273,8.343c-1.835,10.6-4.356,21.04-6.737,31.517-3.121,13.731-7.132,27.217-10.866,40.782-2.408,8.744-5.818,17.115-8.853,25.625-1.063,2.98-2.821,5.713-4.272,8.554C103.553,332.667,103.169,333.036,103.692,333.657Z" fill="#ff0024"/>
          <path id="Path_12" data-name="Path 12" d="M251.308,106.02a2.66,2.66,0,0,0,2.115,1.76,6.3,6.3,0,0,1,2.622,1.008c.444.342.714,1.374,1.371.922.69-.476-.1-.639-.456-.642-.279,0-.559.33-.843.337a3.434,3.434,0,0,1-1.38-.208c-6.726-2.818-13.692-4.938-20.624-7.163-2.118-.68-4.161-1.591-6.256-2.346C217.7,96.03,207.563,92.3,197.36,88.767q-13.293-4.6-26.332-9.862c-3.837-1.541-7.833-2.687-11.531-4.586a1.708,1.708,0,0,0-2.155.464c-3.021,3.277-6.648,5.977-9.2,9.708a20.3,20.3,0,0,1-2.226,2.494c-7.072,7.349-14.359,14.506-21.18,22.081-8.958,9.948-18.633,19.174-28.017,28.694-5.729,5.813-5.7,5.805-8.639,12.9-2.009,4.846-4.115,9.659-6.4,14.379-3.735,7.712-7.5,15.415-11.536,22.974-3.662,6.866-7.225,13.785-11.256,20.466-2.789,4.621-5.428,9.35-8.38,13.87C46.7,228.184,43,234.082,38.441,239.421c-2.04,2.391-4.238,4.675-6.342,7.1,1.3.741,2.033-.052,2.817-.489A77.891,77.891,0,0,0,48.84,236.14c1.655-1.472,3.283-2.975,4.969-4.41a25.909,25.909,0,0,0,4.882-5.184c1.776-2.629,4.341-4.6,6.276-7.18,3.706-4.941,7.481-9.809,10.989-14.913,3.244-4.718,6.293-9.538,9.223-14.436,2.028-3.39,3.727-6.974,5.618-10.447.331-.608.314-1.633,1.462-1.542a2.225,2.225,0,0,1-.013.841A317.628,317.628,0,0,1,72.04,217.231c-3.8,6.058-8.144,11.695-12.479,17.364a81.627,81.627,0,0,1-9.127,9.764c-7.538,7.09-16.222,12.427-26.341,14.8-6.158,1.446-12.54,2.148-18.9.622-1.537-.369-3.222.062-4.675-.8-.23-.137-.508-.418-.518-.643-.01-.245.244-.521.43-.745a.853.853,0,0,1,.434-.186c7.184-1.825,12.683-6.395,18.165-11.031a56.322,56.322,0,0,0,6.441-5.657c4.9-5.623,9.978-11.069,14.332-17.183,3.962-5.562,7.949-11.1,11.642-16.842,3.956-6.154,7.665-12.454,11.052-18.939,2.791-5.344,5.7-10.632,8.285-16.076,4.624-9.752,9.456-19.444,12.28-29.92A15.052,15.052,0,0,1,87.109,135c7.068-7.319,14.123-14.659,21.059-22.1,4.211-4.514,8.769-8.73,12.669-13.513,3.926-4.816,8.906-8.645,12.519-13.73a11.35,11.35,0,0,1,1.656-1.727c6.144-5.595,11.253-12.177,17.186-17.972,1.016-.992,1.791-2.46,3.23-2.743,1.457-.287,2.546,1.108,3.887,1.531,2.121.668,4.241,1.355,6.4,1.9,1.716.433,2.109.224,3.04-1.449,2.707-4.867,5.812-9.479,8.926-14.085a47.9,47.9,0,0,1,7.552-9.186,1.826,1.826,0,0,1,2.484-.427c6.508,3.684,13.084,7.25,19.617,10.891,4.308,2.4,8.55,4.924,12.884,7.279,3.069,1.668,6.24,3.149,9.367,4.711,6.98,3.487,13.944,7,20.949,10.441a31.055,31.055,0,0,0,7.583,2.815c1.643.326,2.348-.073,2.758-1.695.891-3.529,2.09-6.959,3.16-10.429,1.507-4.888,3.735-9.453,5.68-14.137a68.035,68.035,0,0,1,4.823-8.773,88.682,88.682,0,0,1,17.433-20.733A84.083,84.083,0,0,1,320.236,5.531a85.632,85.632,0,0,1,17.475-4.416C342.753.482,347.82-.279,352.945.138c1.622.132,2,.419,2.016,1.99.042,3.992.053,7.986.007,11.978-.023,2.047-.35,2.408-2.635,2.385-6.061-.061-12.031.988-18,1.7a64.808,64.808,0,0,0-13.722,3.671A76.558,76.558,0,0,0,299,33.9c-2.624,2.055-4.778,4.7-7.26,6.949-6.943,6.3-11.885,14.1-16.347,22.166a76.091,76.091,0,0,0-7.643,21.9,6.255,6.255,0,0,0,2.15,6.334c3.553,3.366,6.525,7.349,9.7,11.1.594.7.1,1.47-.919,1.483-2.238.03-4.489.174-6.712-.008-5.609-.459-11.1,1.048-16.683.9A6.768,6.768,0,0,0,251.308,106.02ZM259.3,91.8c0-2.186.027-3.942-.011-5.7a1.939,1.939,0,0,0-1.546-2.06c-3.5-1.059-6.954-2.243-10.417-3.408-6.33-2.13-12.538-4.564-18.741-7.048-8.27-3.311-16.426-6.864-24.515-10.568a106.783,106.783,0,0,1-14.409-7.512,2.665,2.665,0,0,0-3.138-.066,31.273,31.273,0,0,0-8.087,7.293c-2.139,2.824-1.694,4.247,1.288,6.053,4.676,2.832,9.9,4.418,14.927,6.348q15.33,5.878,30.932,11.064c9.181,3.06,18.268,6.446,27.464,9.5,1.785.592,3.773,2.267,5.361,1.365C260.419,95.92,258.844,93.29,259.3,91.8Z" fill="#ff0024"/>
          <path id="Path_13" data-name="Path 13" d="M387.976,398.98c2.5-3.793,5.012-7.638,7.875-11.241,2.27-2.856,4.548-5.691,7.065-8.359,5.484-5.814,11.574-10.975,17.421-16.388,4.3-3.978,9.091-7.428,13.735-11.022,8.543-6.61,17.176-13.106,26.318-18.878a15.331,15.331,0,0,0,6.192-7.6c5.467-13.7,11.11-27.334,16.4-41.1,3.069-8,5.5-16.236,8.372-24.314,1.963-5.523,3.793-11.076,5.347-16.729a4.965,4.965,0,0,0-1.46-5.55c-4.884-4.585-9.112-9.8-13.711-14.665-4.906-5.187-9.686-10.521-14.411-15.887-5.142-5.84-10.308-11.667-15.232-17.688-5.519-6.752-11.152-13.425-16-20.71-.86-1.294-1.148-3.008-2.716-3.977a5.286,5.286,0,0,0-1.329,2.821,67.912,67.912,0,0,1-8.662,24.07,50.371,50.371,0,0,1-15.95,17.439,8.466,8.466,0,0,1-6.334,1.351c-4.685-.8-9.359-1.686-14-2.7a11.6,11.6,0,0,0-4.705-.153c-.33,1.237.687,1.234,1.321,1.438a66.215,66.215,0,0,1,18.348,9.041,7.846,7.846,0,0,1,2.348,2.334c-.228.21-.41.492-.664.6-1.4.569-3.708-.712-4.2,1.115-.4,1.465,1.935,1.776,3,2.6,3.9,3.026,7.871,5.962,11.186,9.659a17.12,17.12,0,0,1,2.04,2.624,4.551,4.551,0,0,1-.28,5.315,54.2,54.2,0,0,1-13.841,14.349,22.606,22.606,0,0,1-8.3,3.577c-.388.087-.853-.172-1.543-.331a51.556,51.556,0,0,0,9.06-10.59,29.532,29.532,0,0,0,2.677-5.059c1.211-2.851,1.013-5.711-1.142-8.012-3.479-3.716-6.959-7.473-11.775-9.6-1.447-.641-2.738-1.623-4.14-2.376-1.659-.89-2.208-.678-2.643,1.091a28.706,28.706,0,0,1-5,10.666,12.784,12.784,0,0,1-4.026,3.858,2.173,2.173,0,0,1-.85-1.755,20.144,20.144,0,0,0-9-13.953c-.265-.177-.556-.314-.82-.492-3.326-2.233-3.326-2.235-3.039-6.6,1.847-.552,3.271.569,4.764,1.3a14.039,14.039,0,0,1,4.082,2.443c2.788,2.829,5.98,5.369,6.565,9.695.023.167.492.425.691.378.249-.058.611-.381.621-.6.2-4.4.78-8.814-.824-13.735,6.227,3.833,12.331,6.437,18.184,9.534a30.167,30.167,0,0,1,3.332,2.442c.1-2.443-1.505-3.375-2.629-4.544a31.753,31.753,0,0,0-4.159-3.95,19.28,19.28,0,0,1-4.036-3.565c2.514-.913,4.366,1.831,6.937,1.038a133.772,133.772,0,0,0-23.575-11.786,45.5,45.5,0,0,0-7.884-1.657c-2.2-.391-2.269-.368-2.306-2.717-.038-2.379-.008-4.759-.008-7.344,5.569.168,10.862.167,16.127,1.3,5.115,1.1,10.187,2.326,15.252,3.638,3.111.806,5.966,2.159,8.949,3.224,2.107.752,3.766.522,4.975-1.377a74.04,74.04,0,0,0,4.393-7.342c2.425-5,4.821-10.042,6.84-15.217,2.22-5.688,5.457-10.756,8.819-15.76,3.106-4.622,6.846-8.65,12.237-11.133,4.122,5.613,8.213,11.246,12.373,16.827q4.542,6.1,9.235,12.078c4.4,5.62,8.866,11.192,13.307,16.782,1.874,2.357,3.739,4.722,5.641,7.057,3.5,4.3,7,8.606,10.559,12.862,3.362,4.021,6.848,7.939,10.184,11.982,2.217,2.688,4.3,5.489,6.373,8.29,1,1.357.918,2.83.637,4.531a95,95,0,0,1-5.847,19.526c-4.217,10.611-8.579,21.166-12.987,31.7-2.208,5.275-4.7,10.429-6.982,15.674-3.358,7.715-6.948,15.339-9.568,23.354-.36,1.1-.638,2.121-1.748,2.677-6.6,3.306-12.067,8.221-17.933,12.564a121.384,121.384,0,0,0-10.946,9.191c-2.654,2.5-5.587,4.7-8.395,7.035-.49.408-1,.8-1.449,1.248-6.9,6.853-14.39,13.1-21.074,20.188-3.944,4.184-8.2,8.07-12.168,12.238a195.751,195.751,0,0,0-18.64,22.251c-1.183,1.685-2.1,3.559-3.2,5.3-.218.342-.763.475-1.157.7-.221-.414-.6-.816-.638-1.245a45.489,45.489,0,0,1,1.968-16.923,129.342,129.342,0,0,1,12.449-28.291c2.826-4.792,5.677-9.558,8.751-14.191a190.917,190.917,0,0,1,12.617-16.7,225.548,225.548,0,0,1,15.76-17.276,176.38,176.38,0,0,1,13.29-11.6c3.6-2.866,7.147-5.842,10.989-8.353a7.167,7.167,0,0,0,3.1-4.517c2.617-9.8,5.64-19.471,8.947-29.054.983-2.85,2.274-5.591,3.35-8.411.573-1.5.585-3.271,2.156-4.267.37,1.766-.421,3.34-.788,4.993-1.711,7.7-3.165,15.45-4.409,23.243-1.018,6.381-2.242,12.729-3.29,19.1A4.277,4.277,0,0,1,456.6,315c-2.754,1.88-5.495,3.783-8.185,5.754a78.815,78.815,0,0,0-8.773,7.332c-2.949,2.9-6.424,5.238-9.158,8.384-5.416,6.231-11.138,12.176-16.422,18.547-4.881,5.885-9.4,12.018-13.644,18.3C395.107,381.2,390.487,389.545,387.976,398.98Z" fill="#ff0024"/>
          <path id="Path_14" data-name="Path 14" d="M303.384,166.5c1.734-2.151,1.855-4.966,4.436-6.831a44.555,44.555,0,0,0,.511,10.351,37.569,37.569,0,0,0,3.427,9.82,32.769,32.769,0,0,0,6.334,8.308,64.765,64.765,0,0,0,8.409,6.524c-1.533.782-2.417-.445-3.488-.754a43.569,43.569,0,0,1-13.485-6.972c-8.678-6.317-14.813-14.276-15.918-25.361-1.919-4.409-.49-8.892.389-13.1.921-4.4,2.3-8.906,5.212-12.674.779-1.006,1.572-1.989,2.44-2.9a3.256,3.256,0,0,0,.771-3.512c-.621-1.961-1.176-3.943-1.752-5.919a32.078,32.078,0,0,1-.706-14.986A52.3,52.3,0,0,1,302.878,98a36.119,36.119,0,0,1,13.773-16.657.79.79,0,0,1,1.217.171.956.956,0,0,1-.015.838c-5.145,8.238-7.446,17.412-8.542,26.895a22.769,22.769,0,0,0,3.093,14.649c1.192,1.982,1.081,2.1-.442,3.678-4.316,4.46-6.753,9.915-8.427,15.772-1.864,6.52-1.68,13.209-1.57,19.889A4.7,4.7,0,0,0,303.384,166.5Z" fill="#ff0024"/>
          <path id="Path_15" data-name="Path 15" d="M398.17,127.668a14.4,14.4,0,0,1,1.146-2.337c2.832-3.72,3.585-8.065,3.758-12.546.423-10.987-2.944-20.941-8.446-30.293-.232-.393-.467-.907.11-1.218a1.15,1.15,0,0,1,.876-.033,14.911,14.911,0,0,1,6.369,5.653,52.145,52.145,0,0,1,8.681,21.432,78.606,78.606,0,0,1,.76,10.421,20.059,20.059,0,0,1-3.1,11.288c-1.063,1.721-1.081,1.8.287,3.168,4.874,4.872,7.617,10.82,9.053,17.469.514,2.379.223,4.769.266,7.153.212,11.823-4.6,21.052-14.024,28.225a42.9,42.9,0,0,1-19.127,8.513c2.765-2.062,5.61-3.766,8.272-5.726a27.347,27.347,0,0,0,10.8-17.324c.4-1.983,1.331-3.923.957-6.063a5.63,5.63,0,0,0-.537-2.279c-.357-.556-.474-1.383.163-1.635a2.215,2.215,0,0,1,1.775.459,8.861,8.861,0,0,1,2.817,3.211,11.013,11.013,0,0,0,.9,1.686c.11.159.522.142.8.139.1,0,.221-.179.308-.294s.236-.276.232-.412c-.118-4.117.521-8.226-.441-12.36-.747-3.209-.978-6.528-1.95-9.722-1.7-5.593-4.34-10.574-8.745-14.524C399.532,129.19,399.023,128.571,398.17,127.668Z" fill="#ff0024"/>
          <path id="Path_16" data-name="Path 16" d="M353.939,163.769c-1.306,1.325-2.375,2.11-3.961,1.589a3.141,3.141,0,0,0-3.082.688,20,20,0,0,1-6.352,3.1c-4.205,1.227-7.721-.237-11.141-2.373-3.2-2-4.642-5.132-5.371-8.646a7.35,7.35,0,0,1,.256-3.777c.487-1.506.84-3.056,1.219-4.6a1.866,1.866,0,0,0-1.817-2.588c-1.906-.142-3.827-.087-5.739-.163a.8.8,0,0,1-.586-.493,1.265,1.265,0,0,1,.248-.867,3,3,0,0,1,2.46-1.264c1.9.025,4-.3,5.655.393a33.347,33.347,0,0,1,8.712,4.858c3.929,3.268,7.538,6.842,11.143,10.436C347.776,162.254,350.553,163.2,353.939,163.769Zm-12.228,2.812c-.418-.44-.5-.6-.62-.64a13.5,13.5,0,0,0-1.346-.429c-3.414-.881-6-2.715-7.246-6.154a11.363,11.363,0,0,0-.849-1.7c-.832-1.471-3.642-2.755-4.736-1.895-1.286,1.009-.054,2.263.189,3.435.6,2.869,2.431,4.622,4.781,6.172A10.5,10.5,0,0,0,341.711,166.581Z" fill="#ff0024"/>
          <path id="Path_17" data-name="Path 17" d="M361.352,164.5a16.122,16.122,0,0,0,5.4-3.511c4.093-3.739,8.2-7.5,12.6-10.861a28.913,28.913,0,0,1,12.033-5.426c1.452-.287,2.364.491,4.073,1.246-3.063.206-5.506.589-7.6,2.727a20.173,20.173,0,0,1,1.543,8.034c-.211,4.482-2.9,9.208-6.833,11.228a15.1,15.1,0,0,1-4.806,2.036,9.918,9.918,0,0,1-8.389-2.581,6.779,6.779,0,0,0-6.385-2.112A1.5,1.5,0,0,1,361.352,164.5Zm15.528,3.366c.322.081.67.294.913.209,5.588-1.954,8.936-5.789,9.777-11.711.168-1.176-.392-1.681-1.6-1.535-1.845.224-2.843.761-3.484,2.964-.995,3.418-2.27,6.985-5.392,9.324C376.925,167.242,376.946,167.612,376.88,167.868Z" fill="#ff0024"/>
          <path id="Path_18" data-name="Path 18" d="M600.438,199.206l.257-.14c-.244-.131-.268-.075-.063.17Z" fill="#ff0024"/>
        </g>
        <g id="Group_3" data-name="Group 3">
          <path id="Path_19" data-name="Path 19" d="M297.693,294.6q0-9.514,5.3-14.814t14.759-5.3q9.7,0,14.945,5.207t5.247,14.589a23.907,23.907,0,0,1-2.293,11.17,16.34,16.34,0,0,1-6.624,6.784,21.861,21.861,0,0,1-10.8,2.425,24.851,24.851,0,0,1-10.877-2.093,16.381,16.381,0,0,1-6.983-6.626A22,22,0,0,1,297.693,294.6Zm12,.053q0,5.883,2.186,8.454a8.274,8.274,0,0,0,11.937.053q2.119-2.518,2.12-9.037,0-5.486-2.213-8.017a7.562,7.562,0,0,0-6-2.53,7.29,7.29,0,0,0-5.83,2.57Q309.7,288.716,309.7,294.652Z" fill="#ff0024"/>
          <path id="Path_20" data-name="Path 20" d="M344.356,275.147h19.953q6.519,0,9.765,3.1t3.246,8.825q0,5.883-3.538,9.2t-10.8,3.312h-6.571V314H344.356Zm12.057,16.563h2.941q3.471,0,4.876-1.2a3.887,3.887,0,0,0,1.4-3.088,4.312,4.312,0,0,0-1.219-3.1q-1.218-1.272-4.584-1.272h-3.418Z" fill="#ff0024"/>
          <path id="Path_21" data-name="Path 21" d="M381.506,301.145l11.421-.716a8.7,8.7,0,0,0,1.511,4.24,6.344,6.344,0,0,0,5.3,2.359,5.868,5.868,0,0,0,3.962-1.206,3.615,3.615,0,0,0,1.391-2.8,3.567,3.567,0,0,0-1.325-2.7q-1.325-1.192-6.148-2.252-7.9-1.776-11.261-4.718a9.484,9.484,0,0,1-3.392-7.5A10.184,10.184,0,0,1,384.7,280.2a11.511,11.511,0,0,1,5.221-4.187,24.365,24.365,0,0,1,9.552-1.524q7.446,0,11.355,2.769t4.65,8.812l-11.315.662a5.286,5.286,0,0,0-5.882-5.009,4.813,4.813,0,0,0-3.154.888,2.722,2.722,0,0,0-1.059,2.16,2.165,2.165,0,0,0,.874,1.67,9.845,9.845,0,0,0,4.028,1.431q7.869,1.695,11.275,3.432a11.851,11.851,0,0,1,4.955,4.306,10.925,10.925,0,0,1,1.55,5.751,12.316,12.316,0,0,1-2.067,6.89,12.929,12.929,0,0,1-5.777,4.783,23.327,23.327,0,0,1-9.353,1.63q-9.91,0-13.726-3.816A15.053,15.053,0,0,1,381.506,301.145Z" fill="#ff0024"/>
        </g>
      </g>
    </g>
  </g>
</svg>
